<svg width="635" height="163" viewBox="0 0 635 163" fill="none" xmlns="http://www.w3.org/2000/svg">
<rect x="1.5" y="1.5" width="266" height="93" rx="46.5" fill="white"/>
<path d="M76.0085 59L71.0227 42.6364H73.6648L77.2017 55.1648H77.3722L80.8665 42.6364H83.5511L87.0028 55.1222H87.1733L90.7102 42.6364H93.3523L88.3665 59H85.8949L82.3153 46.429H82.0597L78.4801 59H76.0085ZM102.98 59.3409C101.404 59.3409 100.044 58.9929 98.9 58.2969C97.7637 57.5938 96.8865 56.6136 96.2686 55.3565C95.6578 54.0923 95.3525 52.6222 95.3525 50.946C95.3525 49.2699 95.6578 47.7926 96.2686 46.5142C96.8865 45.2287 97.7459 44.2273 98.8468 43.5099C99.9547 42.7855 101.247 42.4233 102.725 42.4233C103.577 42.4233 104.419 42.5653 105.249 42.8494C106.08 43.1335 106.837 43.5952 107.519 44.2344C108.2 44.8665 108.744 45.7045 109.149 46.7486C109.553 47.7926 109.756 49.0781 109.756 50.6051V51.6705H97.1422V49.4972H107.199C107.199 48.5739 107.014 47.75 106.645 47.0256C106.283 46.3011 105.764 45.7294 105.09 45.3104C104.422 44.8913 103.634 44.6818 102.725 44.6818C101.723 44.6818 100.857 44.9304 100.125 45.4276C99.4007 45.9176 98.8432 46.5568 98.4526 47.3452C98.062 48.1335 97.8667 48.9787 97.8667 49.8807V51.3295C97.8667 52.5653 98.0797 53.6129 98.5059 54.4723C98.9391 55.3246 99.5392 55.9744 100.306 56.4219C101.073 56.8622 101.965 57.0824 102.98 57.0824C103.641 57.0824 104.237 56.9901 104.77 56.8054C105.31 56.6136 105.775 56.3295 106.166 55.9531C106.556 55.5696 106.858 55.0937 107.071 54.5256L109.5 55.2074C109.244 56.0312 108.815 56.7557 108.211 57.3807C107.607 57.9986 106.862 58.4815 105.974 58.8295C105.086 59.1705 104.088 59.3409 102.98 59.3409ZM113.921 59V37.1818H116.436V45.2358H116.649C116.833 44.9517 117.089 44.5895 117.416 44.1491C117.749 43.7017 118.225 43.304 118.843 42.956C119.468 42.6009 120.313 42.4233 121.379 42.4233C122.757 42.4233 123.971 42.7678 125.022 43.4567C126.073 44.1456 126.894 45.1222 127.483 46.3864C128.073 47.6506 128.367 49.142 128.367 50.8608C128.367 52.5938 128.073 54.0959 127.483 55.3672C126.894 56.6314 126.077 57.6115 125.033 58.3075C123.989 58.9964 122.785 59.3409 121.421 59.3409C120.37 59.3409 119.529 59.1669 118.896 58.8189C118.264 58.4638 117.778 58.0625 117.437 57.6151C117.096 57.1605 116.833 56.7841 116.649 56.4858H116.35V59H113.921ZM116.393 50.8182C116.393 52.054 116.574 53.1442 116.936 54.0888C117.298 55.0263 117.828 55.7614 118.524 56.294C119.22 56.8196 120.072 57.0824 121.08 57.0824C122.132 57.0824 123.009 56.8054 123.712 56.2514C124.422 55.6903 124.955 54.9375 125.31 53.9929C125.672 53.0412 125.853 51.983 125.853 50.8182C125.853 49.6676 125.676 48.6307 125.32 47.7074C124.972 46.777 124.443 46.0419 123.733 45.5021C123.03 44.9553 122.146 44.6818 121.08 44.6818C120.058 44.6818 119.198 44.9411 118.502 45.4595C117.806 45.9709 117.281 46.6882 116.926 47.6115C116.57 48.5277 116.393 49.5966 116.393 50.8182ZM132.213 65.1364V42.6364H134.642V45.2358H134.941C135.125 44.9517 135.381 44.5895 135.708 44.1491C136.041 43.7017 136.517 43.304 137.135 42.956C137.76 42.6009 138.605 42.4233 139.671 42.4233C141.048 42.4233 142.263 42.7678 143.314 43.4567C144.365 44.1456 145.186 45.1222 145.775 46.3864C146.365 47.6506 146.659 49.142 146.659 50.8608C146.659 52.5938 146.365 54.0959 145.775 55.3672C145.186 56.6314 144.369 57.6115 143.325 58.3075C142.281 58.9964 141.077 59.3409 139.713 59.3409C138.662 59.3409 137.82 59.1669 137.188 58.8189C136.556 58.4638 136.07 58.0625 135.729 57.6151C135.388 57.1605 135.125 56.7841 134.941 56.4858H134.727V65.1364H132.213ZM134.685 50.8182C134.685 52.054 134.866 53.1442 135.228 54.0888C135.59 55.0263 136.119 55.7614 136.816 56.294C137.512 56.8196 138.364 57.0824 139.372 57.0824C140.423 57.0824 141.301 56.8054 142.004 56.2514C142.714 55.6903 143.247 54.9375 143.602 53.9929C143.964 53.0412 144.145 51.983 144.145 50.8182C144.145 49.6676 143.968 48.6307 143.612 47.7074C143.264 46.777 142.735 46.0419 142.025 45.5021C141.322 44.9553 140.438 44.6818 139.372 44.6818C138.35 44.6818 137.49 44.9411 136.794 45.4595C136.098 45.9709 135.573 46.6882 135.218 47.6115C134.862 48.5277 134.685 49.5966 134.685 50.8182ZM155.31 59.3835C154.273 59.3835 153.332 59.1882 152.487 58.7976C151.642 58.3999 150.97 57.8281 150.473 57.0824C149.976 56.3295 149.727 55.4205 149.727 54.3551C149.727 53.4176 149.912 52.6577 150.281 52.0753C150.651 51.4858 151.144 51.0241 151.762 50.6903C152.38 50.3565 153.062 50.108 153.808 49.9446C154.561 49.7741 155.317 49.6392 156.077 49.5398C157.071 49.4119 157.877 49.3161 158.495 49.2521C159.12 49.1811 159.575 49.0639 159.859 48.9006C160.15 48.7372 160.296 48.4531 160.296 48.0483V47.9631C160.296 46.9119 160.008 46.0952 159.433 45.5128C158.865 44.9304 158.002 44.6392 156.844 44.6392C155.644 44.6392 154.703 44.902 154.021 45.4276C153.339 45.9531 152.86 46.5142 152.583 47.1108L150.196 46.2585C150.622 45.2642 151.191 44.4901 151.901 43.9361C152.618 43.375 153.399 42.9844 154.244 42.7642C155.097 42.5369 155.935 42.4233 156.759 42.4233C157.284 42.4233 157.888 42.4872 158.57 42.6151C159.259 42.7358 159.923 42.9879 160.562 43.3714C161.208 43.755 161.744 44.3338 162.171 45.108C162.597 45.8821 162.81 46.919 162.81 48.2188V59H160.296V56.7841H160.168C159.997 57.1392 159.713 57.5192 159.316 57.924C158.918 58.3288 158.389 58.6733 157.728 58.9574C157.068 59.2415 156.262 59.3835 155.31 59.3835ZM155.693 57.125C156.688 57.125 157.526 56.9297 158.208 56.5391C158.896 56.1484 159.415 55.6442 159.763 55.0263C160.118 54.4084 160.296 53.7585 160.296 53.0767V50.7756C160.189 50.9034 159.955 51.0206 159.593 51.1271C159.237 51.2266 158.825 51.3153 158.357 51.3935C157.895 51.4645 157.444 51.5284 157.004 51.5852C156.57 51.6349 156.219 51.6776 155.949 51.7131C155.296 51.7983 154.685 51.9368 154.117 52.1286C153.556 52.3132 153.101 52.5937 152.753 52.9702C152.412 53.3395 152.242 53.8437 152.242 54.483C152.242 55.3565 152.565 56.017 153.211 56.4645C153.865 56.9048 154.692 57.125 155.693 57.125ZM174.047 59.3409C172.512 59.3409 171.191 58.9787 170.083 58.2543C168.975 57.5298 168.123 56.532 167.527 55.2607C166.93 53.9893 166.632 52.5369 166.632 50.9034C166.632 49.2415 166.937 47.7749 167.548 46.5036C168.166 45.2251 169.025 44.2273 170.126 43.5099C171.234 42.7855 172.527 42.4233 174.004 42.4233C175.154 42.4233 176.191 42.6364 177.115 43.0625C178.038 43.4886 178.794 44.0852 179.384 44.8523C179.973 45.6193 180.339 46.5142 180.481 47.5369H177.967C177.775 46.7912 177.349 46.1307 176.689 45.5554C176.035 44.973 175.154 44.6818 174.047 44.6818C173.066 44.6818 172.207 44.9375 171.468 45.4489C170.737 45.9531 170.165 46.6669 169.753 47.5902C169.348 48.5064 169.146 49.5824 169.146 50.8182C169.146 52.0824 169.345 53.1832 169.743 54.1207C170.147 55.0582 170.716 55.7862 171.447 56.3047C172.186 56.8232 173.052 57.0824 174.047 57.0824C174.7 57.0824 175.293 56.9688 175.826 56.7415C176.358 56.5142 176.809 56.1875 177.179 55.7614C177.548 55.3352 177.811 54.8239 177.967 54.2273H180.481C180.339 55.1932 179.988 56.0632 179.426 56.8374C178.873 57.6044 178.137 58.2152 177.221 58.6697C176.312 59.1172 175.254 59.3409 174.047 59.3409ZM186.5 53.0341L186.458 49.9233H186.969L194.128 42.6364H197.239L189.611 50.3494H189.398L186.5 53.0341ZM184.157 59V37.1818H186.671V59H184.157ZM194.554 59L188.162 50.9034L189.952 49.1562L197.75 59H194.554Z" fill="black"/>
<rect x="1.5" y="1.5" width="266" height="93" rx="46.5" stroke="black" stroke-width="3"/>
<rect x="417.5" y="1.5" width="216" height="93" rx="46.5" fill="white"/>
<path d="M488.642 59V37.1818H491.156V45.2358H491.369C491.554 44.9517 491.81 44.5895 492.136 44.1491C492.47 43.7017 492.946 43.304 493.564 42.956C494.189 42.6009 495.034 42.4233 496.099 42.4233C497.477 42.4233 498.692 42.7678 499.743 43.4567C500.794 44.1456 501.614 45.1222 502.204 46.3864C502.793 47.6506 503.088 49.142 503.088 50.8608C503.088 52.5938 502.793 54.0959 502.204 55.3672C501.614 56.6314 500.798 57.6115 499.754 58.3075C498.71 58.9964 497.506 59.3409 496.142 59.3409C495.091 59.3409 494.249 59.1669 493.617 58.8189C492.985 58.4638 492.499 58.0625 492.158 57.6151C491.817 57.1605 491.554 56.7841 491.369 56.4858H491.071V59H488.642ZM491.114 50.8182C491.114 52.054 491.295 53.1442 491.657 54.0888C492.019 55.0263 492.548 55.7614 493.244 56.294C493.94 56.8196 494.793 57.0824 495.801 57.0824C496.852 57.0824 497.729 56.8054 498.433 56.2514C499.143 55.6903 499.675 54.9375 500.031 53.9929C500.393 53.0412 500.574 51.983 500.574 50.8182C500.574 49.6676 500.396 48.6307 500.041 47.7074C499.693 46.777 499.164 46.0419 498.454 45.5021C497.751 44.9553 496.866 44.6818 495.801 44.6818C494.778 44.6818 493.919 44.9411 493.223 45.4595C492.527 45.9709 492.001 46.6882 491.646 47.6115C491.291 48.5277 491.114 49.5966 491.114 50.8182ZM511.749 59.3835C510.712 59.3835 509.771 59.1882 508.926 58.7976C508.081 58.3999 507.41 57.8281 506.913 57.0824C506.415 56.3295 506.167 55.4205 506.167 54.3551C506.167 53.4176 506.352 52.6577 506.721 52.0753C507.09 51.4858 507.584 51.0241 508.202 50.6903C508.82 50.3565 509.501 50.108 510.247 49.9446C511 49.7741 511.756 49.6392 512.516 49.5398C513.511 49.4119 514.317 49.3161 514.935 49.2521C515.56 49.1811 516.014 49.0639 516.298 48.9006C516.589 48.7372 516.735 48.4531 516.735 48.0483V47.9631C516.735 46.9119 516.447 46.0952 515.872 45.5128C515.304 44.9304 514.441 44.6392 513.283 44.6392C512.083 44.6392 511.142 44.902 510.46 45.4276C509.778 45.9531 509.299 46.5142 509.022 47.1108L506.636 46.2585C507.062 45.2642 507.63 44.4901 508.34 43.9361C509.058 43.375 509.839 42.9844 510.684 42.7642C511.536 42.5369 512.374 42.4233 513.198 42.4233C513.724 42.4233 514.327 42.4872 515.009 42.6151C515.698 42.7358 516.362 42.9879 517.001 43.3714C517.648 43.755 518.184 44.3338 518.61 45.108C519.036 45.8821 519.249 46.919 519.249 48.2188V59H516.735V56.7841H516.607C516.437 57.1392 516.153 57.5192 515.755 57.924C515.357 58.3288 514.828 58.6733 514.168 58.9574C513.507 59.2415 512.701 59.3835 511.749 59.3835ZM512.133 57.125C513.127 57.125 513.965 56.9297 514.647 56.5391C515.336 56.1484 515.854 55.6442 516.202 55.0263C516.558 54.4084 516.735 53.7585 516.735 53.0767V50.7756C516.629 50.9034 516.394 51.0206 516.032 51.1271C515.677 51.2266 515.265 51.3153 514.796 51.3935C514.335 51.4645 513.884 51.5284 513.443 51.5852C513.01 51.6349 512.658 51.6776 512.388 51.7131C511.735 51.7983 511.124 51.9368 510.556 52.1286C509.995 52.3132 509.54 52.5937 509.192 52.9702C508.852 53.3395 508.681 53.8437 508.681 54.483C508.681 55.3565 509.004 56.017 509.651 56.4645C510.304 56.9048 511.131 57.125 512.133 57.125ZM524.179 59V37.1818H526.693V45.2358H526.906C527.091 44.9517 527.347 44.5895 527.673 44.1491C528.007 43.7017 528.483 43.304 529.101 42.956C529.726 42.6009 530.571 42.4233 531.637 42.4233C533.014 42.4233 534.229 42.7678 535.28 43.4567C536.331 44.1456 537.151 45.1222 537.741 46.3864C538.33 47.6506 538.625 49.142 538.625 50.8608C538.625 52.5938 538.33 54.0959 537.741 55.3672C537.151 56.6314 536.335 57.6115 535.291 58.3075C534.247 58.9964 533.043 59.3409 531.679 59.3409C530.628 59.3409 529.786 59.1669 529.154 58.8189C528.522 58.4638 528.036 58.0625 527.695 57.6151C527.354 57.1605 527.091 56.7841 526.906 56.4858H526.608V59H524.179ZM526.651 50.8182C526.651 52.054 526.832 53.1442 527.194 54.0888C527.556 55.0263 528.085 55.7614 528.781 56.294C529.477 56.8196 530.33 57.0824 531.338 57.0824C532.389 57.0824 533.267 56.8054 533.97 56.2514C534.68 55.6903 535.213 54.9375 535.568 53.9929C535.93 53.0412 536.111 51.983 536.111 50.8182C536.111 49.6676 535.933 48.6307 535.578 47.7074C535.23 46.777 534.701 46.0419 533.991 45.5021C533.288 44.9553 532.404 44.6818 531.338 44.6818C530.316 44.6818 529.456 44.9411 528.76 45.4595C528.064 45.9709 527.539 46.6882 527.183 47.6115C526.828 48.5277 526.651 49.5966 526.651 50.8182ZM549.332 59.3409C547.755 59.3409 546.395 58.9929 545.252 58.2969C544.115 57.5938 543.238 56.6136 542.62 55.3565C542.009 54.0923 541.704 52.6222 541.704 50.946C541.704 49.2699 542.009 47.7926 542.62 46.5142C543.238 45.2287 544.097 44.2273 545.198 43.5099C546.306 42.7855 547.599 42.4233 549.076 42.4233C549.928 42.4233 550.77 42.5653 551.601 42.8494C552.432 43.1335 553.188 43.5952 553.87 44.2344C554.552 44.8665 555.095 45.7045 555.5 46.7486C555.905 47.7926 556.107 49.0781 556.107 50.6051V51.6705H543.494V49.4972H553.551C553.551 48.5739 553.366 47.75 552.997 47.0256C552.634 46.3011 552.116 45.7294 551.441 45.3104C550.774 44.8913 549.985 44.6818 549.076 44.6818C548.075 44.6818 547.208 44.9304 546.477 45.4276C545.752 45.9176 545.195 46.5568 544.804 47.3452C544.414 48.1335 544.218 48.9787 544.218 49.8807V51.3295C544.218 52.5653 544.431 53.6129 544.857 54.4723C545.291 55.3246 545.891 55.9744 546.658 56.4219C547.425 56.8622 548.316 57.0824 549.332 57.0824C549.992 57.0824 550.589 56.9901 551.122 56.8054C551.661 56.6136 552.127 56.3295 552.517 55.9531C552.908 55.5696 553.21 55.0937 553.423 54.5256L555.852 55.2074C555.596 56.0312 555.166 56.7557 554.563 57.3807C553.959 57.9986 553.213 58.4815 552.325 58.8295C551.438 59.1705 550.44 59.3409 549.332 59.3409ZM562.446 37.1818V59H559.932V37.1818H562.446Z" fill="black"/>
<rect x="417.5" y="1.5" width="216" height="93" rx="46.5" stroke="black" stroke-width="3"/>
<path d="M313.688 148.515L312.928 149.809L312.928 149.809L313.688 148.515ZM361.559 148.944L360.823 147.637L360.823 147.637L361.559 148.944ZM437.445 107.403C437.668 106.605 437.201 105.778 436.403 105.555L423.401 101.925C422.603 101.702 421.775 102.168 421.553 102.966C421.33 103.764 421.796 104.591 422.594 104.814L434.152 108.041L430.925 119.599C430.702 120.397 431.168 121.225 431.966 121.447C432.764 121.67 433.591 121.204 433.814 120.406L437.445 107.403ZM242.24 108.293L312.928 149.809L314.448 147.222L243.76 105.707L242.24 108.293ZM362.295 150.251L436.736 108.307L435.264 105.693L360.823 147.637L362.295 150.251ZM312.928 149.809C328.131 158.737 346.935 158.906 362.295 150.251L360.823 147.637C346.393 155.767 328.729 155.609 314.448 147.222L312.928 149.809Z" fill="black"/>
</svg>
