<svg width="472" height="422" viewBox="0 0 472 422" fill="none" xmlns="http://www.w3.org/2000/svg">
<rect x="223.5" y="1.5" width="173" height="93" rx="46.5" fill="white"/>
<path d="M302.994 37.1818H305.636V52.7784C305.636 54.1705 305.381 55.353 304.869 56.326C304.358 57.299 303.637 58.0376 302.707 58.5419C301.776 59.0462 300.679 59.2983 299.415 59.2983C298.222 59.2983 297.16 59.0817 296.229 58.6484C295.299 58.2081 294.567 57.5831 294.035 56.7734C293.502 55.9638 293.236 55.0014 293.236 53.8864H295.835C295.835 54.5043 295.988 55.044 296.293 55.5057C296.606 55.9602 297.032 56.3153 297.572 56.571C298.112 56.8267 298.726 56.9545 299.415 56.9545C300.175 56.9545 300.821 56.7947 301.354 56.4751C301.886 56.1555 302.291 55.6868 302.568 55.0689C302.852 54.4439 302.994 53.6804 302.994 52.7784V37.1818ZM322.863 42.6364C322.735 41.5568 322.217 40.7188 321.308 40.1222C320.398 39.5256 319.283 39.2273 317.962 39.2273C316.996 39.2273 316.151 39.3835 315.427 39.696C314.71 40.0085 314.148 40.4382 313.744 40.9851C313.346 41.532 313.147 42.1534 313.147 42.8494C313.147 43.4318 313.286 43.9325 313.562 44.3516C313.847 44.7635 314.209 45.108 314.649 45.3849C315.089 45.6548 315.551 45.8786 316.034 46.0561C316.517 46.2266 316.961 46.3651 317.366 46.4716L319.582 47.0682C320.15 47.2173 320.782 47.4233 321.478 47.6861C322.181 47.9489 322.852 48.3075 323.491 48.7621C324.138 49.2095 324.67 49.7848 325.089 50.4879C325.509 51.1911 325.718 52.054 325.718 53.0767C325.718 54.2557 325.409 55.321 324.791 56.2727C324.18 57.2244 323.286 57.9808 322.107 58.5419C320.935 59.103 319.511 59.3835 317.835 59.3835C316.272 59.3835 314.919 59.1314 313.776 58.6271C312.639 58.1229 311.744 57.4197 311.091 56.5178C310.445 55.6158 310.079 54.5682 309.994 53.375H312.721C312.792 54.1989 313.069 54.8807 313.552 55.4205C314.042 55.9531 314.66 56.3509 315.406 56.6136C316.158 56.8693 316.968 56.9972 317.835 56.9972C318.843 56.9972 319.749 56.8338 320.551 56.5071C321.354 56.1733 321.989 55.7116 322.458 55.1222C322.927 54.5256 323.161 53.8295 323.161 53.0341C323.161 52.3097 322.959 51.7202 322.554 51.2656C322.149 50.8111 321.616 50.4418 320.956 50.1577C320.295 49.8736 319.582 49.625 318.815 49.4119L316.13 48.6449C314.425 48.1548 313.076 47.4553 312.082 46.5462C311.087 45.6371 310.59 44.4474 310.59 42.9773C310.59 41.7557 310.92 40.6903 311.581 39.7812C312.249 38.8651 313.143 38.1548 314.266 37.6506C315.395 37.1392 316.656 36.8835 318.048 36.8835C319.454 36.8835 320.704 37.1357 321.798 37.6399C322.891 38.1371 323.758 38.8189 324.397 39.6854C325.043 40.5518 325.384 41.5355 325.42 42.6364H322.863Z" fill="black"/>
<rect x="223.5" y="1.5" width="173" height="93" rx="46.5" stroke="black" stroke-width="3"/>
<rect x="1.5" y="164.5" width="235" height="93" rx="46.5" fill="white"/>
<path d="M72.642 222V200.182H80.0142C81.7188 200.182 83.1179 200.473 84.2116 201.055C85.3054 201.631 86.1151 202.423 86.6406 203.431C87.1662 204.44 87.429 205.587 87.429 206.872C87.429 208.158 87.1662 209.298 86.6406 210.292C86.1151 211.286 85.3089 212.067 84.2223 212.636C83.1357 213.197 81.7472 213.477 80.0568 213.477H74.0909V211.091H79.9716C81.1364 211.091 82.0739 210.92 82.7841 210.58C83.5014 210.239 84.0199 209.756 84.3395 209.131C84.6662 208.499 84.8295 207.746 84.8295 206.872C84.8295 205.999 84.6662 205.235 84.3395 204.582C84.0128 203.928 83.4908 203.424 82.7734 203.069C82.0561 202.707 81.108 202.526 79.929 202.526H75.2841V222H72.642ZM82.9119 212.199L88.2812 222H85.2131L79.929 212.199H82.9119ZM91.8315 222V200.182H104.999V202.526H94.4735V209.898H104.317V212.241H94.4735V219.656H105.17V222H91.8315ZM110.656 222H107.886L115.898 200.182H118.625L126.636 222H123.866L117.346 203.634H117.176L110.656 222ZM111.679 213.477H122.844V215.821H111.679V213.477ZM146.566 207H143.924C143.768 206.24 143.494 205.572 143.104 204.997C142.72 204.422 142.251 203.939 141.697 203.548C141.151 203.151 140.543 202.852 139.876 202.653C139.208 202.455 138.512 202.355 137.788 202.355C136.467 202.355 135.27 202.689 134.197 203.357C133.132 204.024 132.283 205.008 131.651 206.308C131.026 207.607 130.714 209.202 130.714 211.091C130.714 212.98 131.026 214.575 131.651 215.874C132.283 217.174 133.132 218.158 134.197 218.825C135.27 219.493 136.467 219.827 137.788 219.827C138.512 219.827 139.208 219.727 139.876 219.528C140.543 219.33 141.151 219.035 141.697 218.644C142.251 218.246 142.72 217.76 143.104 217.185C143.494 216.602 143.768 215.935 143.924 215.182H146.566C146.367 216.297 146.005 217.295 145.479 218.175C144.954 219.056 144.3 219.805 143.519 220.423C142.738 221.034 141.861 221.499 140.888 221.819C139.922 222.138 138.888 222.298 137.788 222.298C135.927 222.298 134.272 221.844 132.823 220.935C131.374 220.026 130.234 218.733 129.403 217.057C128.572 215.381 128.157 213.392 128.157 211.091C128.157 208.79 128.572 206.801 129.403 205.125C130.234 203.449 131.374 202.156 132.823 201.247C134.272 200.338 135.927 199.884 137.788 199.884C138.888 199.884 139.922 200.043 140.888 200.363C141.861 200.683 142.738 201.151 143.519 201.769C144.3 202.38 144.954 203.126 145.479 204.006C146.005 204.88 146.367 205.878 146.566 207ZM149.642 202.526V200.182H166.006V202.526H159.145V222H156.503V202.526H149.642Z" fill="black"/>
<rect x="1.5" y="164.5" width="235" height="93" rx="46.5" stroke="black" stroke-width="3"/>
<rect x="86.5" y="327.5" width="384" height="93" rx="46.5" fill="white"/>
<path d="M157.301 385V368.636H159.73V371.108H159.901C160.199 370.298 160.739 369.641 161.52 369.137C162.301 368.633 163.182 368.381 164.162 368.381C164.347 368.381 164.577 368.384 164.854 368.391C165.131 368.398 165.341 368.409 165.483 368.423V370.98C165.398 370.959 165.202 370.927 164.897 370.884C164.599 370.835 164.283 370.81 163.949 370.81C163.153 370.81 162.443 370.977 161.818 371.31C161.2 371.637 160.71 372.092 160.348 372.674C159.993 373.249 159.815 373.906 159.815 374.645V385H157.301ZM174.826 385.341C173.249 385.341 171.889 384.993 170.746 384.297C169.609 383.594 168.732 382.614 168.114 381.357C167.504 380.092 167.198 378.622 167.198 376.946C167.198 375.27 167.504 373.793 168.114 372.514C168.732 371.229 169.592 370.227 170.692 369.51C171.8 368.786 173.093 368.423 174.57 368.423C175.423 368.423 176.264 368.565 177.095 368.849C177.926 369.134 178.683 369.595 179.364 370.234C180.046 370.866 180.589 371.705 180.994 372.749C181.399 373.793 181.602 375.078 181.602 376.605V377.67H168.988V375.497H179.045C179.045 374.574 178.86 373.75 178.491 373.026C178.129 372.301 177.61 371.729 176.935 371.31C176.268 370.891 175.479 370.682 174.57 370.682C173.569 370.682 172.702 370.93 171.971 371.428C171.246 371.918 170.689 372.557 170.298 373.345C169.908 374.134 169.712 374.979 169.712 375.881V377.33C169.712 378.565 169.925 379.613 170.352 380.472C170.785 381.325 171.385 381.974 172.152 382.422C172.919 382.862 173.81 383.082 174.826 383.082C175.487 383.082 176.083 382.99 176.616 382.805C177.156 382.614 177.621 382.33 178.011 381.953C178.402 381.57 178.704 381.094 178.917 380.526L181.346 381.207C181.09 382.031 180.661 382.756 180.057 383.381C179.453 383.999 178.707 384.482 177.82 384.83C176.932 385.17 175.934 385.341 174.826 385.341ZM190.241 385.384C189.205 385.384 188.263 385.188 187.418 384.798C186.573 384.4 185.902 383.828 185.405 383.082C184.908 382.33 184.659 381.42 184.659 380.355C184.659 379.418 184.844 378.658 185.213 378.075C185.582 377.486 186.076 377.024 186.694 376.69C187.312 376.357 187.994 376.108 188.739 375.945C189.492 375.774 190.249 375.639 191.009 375.54C192.003 375.412 192.809 375.316 193.427 375.252C194.052 375.181 194.506 375.064 194.79 374.901C195.082 374.737 195.227 374.453 195.227 374.048V373.963C195.227 372.912 194.94 372.095 194.364 371.513C193.796 370.93 192.933 370.639 191.776 370.639C190.575 370.639 189.634 370.902 188.952 371.428C188.271 371.953 187.791 372.514 187.514 373.111L185.128 372.259C185.554 371.264 186.122 370.49 186.832 369.936C187.55 369.375 188.331 368.984 189.176 368.764C190.028 368.537 190.866 368.423 191.69 368.423C192.216 368.423 192.82 368.487 193.501 368.615C194.19 368.736 194.854 368.988 195.494 369.371C196.14 369.755 196.676 370.334 197.102 371.108C197.528 371.882 197.741 372.919 197.741 374.219V385H195.227V382.784H195.099C194.929 383.139 194.645 383.519 194.247 383.924C193.849 384.329 193.32 384.673 192.66 384.957C191.999 385.241 191.193 385.384 190.241 385.384ZM190.625 383.125C191.619 383.125 192.457 382.93 193.139 382.539C193.828 382.148 194.347 381.644 194.695 381.026C195.05 380.408 195.227 379.759 195.227 379.077V376.776C195.121 376.903 194.886 377.021 194.524 377.127C194.169 377.227 193.757 377.315 193.288 377.393C192.827 377.464 192.376 377.528 191.935 377.585C191.502 377.635 191.151 377.678 190.881 377.713C190.227 377.798 189.616 377.937 189.048 378.129C188.487 378.313 188.033 378.594 187.685 378.97C187.344 379.339 187.173 379.844 187.173 380.483C187.173 381.357 187.496 382.017 188.143 382.464C188.796 382.905 189.624 383.125 190.625 383.125ZM208.978 385.341C207.444 385.341 206.123 384.979 205.015 384.254C203.907 383.53 203.055 382.532 202.458 381.261C201.862 379.989 201.563 378.537 201.563 376.903C201.563 375.241 201.869 373.775 202.48 372.504C203.097 371.225 203.957 370.227 205.058 369.51C206.166 368.786 207.458 368.423 208.936 368.423C210.086 368.423 211.123 368.636 212.046 369.062C212.97 369.489 213.726 370.085 214.316 370.852C214.905 371.619 215.271 372.514 215.413 373.537H212.899C212.707 372.791 212.281 372.131 211.62 371.555C210.967 370.973 210.086 370.682 208.978 370.682C207.998 370.682 207.139 370.937 206.4 371.449C205.669 371.953 205.097 372.667 204.685 373.59C204.28 374.506 204.078 375.582 204.078 376.818C204.078 378.082 204.276 379.183 204.674 380.121C205.079 381.058 205.647 381.786 206.379 382.305C207.117 382.823 207.984 383.082 208.978 383.082C209.632 383.082 210.225 382.969 210.757 382.741C211.29 382.514 211.741 382.188 212.11 381.761C212.48 381.335 212.742 380.824 212.899 380.227H215.413C215.271 381.193 214.919 382.063 214.358 382.837C213.804 383.604 213.069 384.215 212.153 384.67C211.244 385.117 210.186 385.341 208.978 385.341ZM226.205 368.636V370.767H217.725V368.636H226.205ZM220.196 364.716H222.71V380.312C222.71 381.023 222.813 381.555 223.019 381.911C223.232 382.259 223.502 382.493 223.829 382.614C224.163 382.727 224.514 382.784 224.884 382.784C225.161 382.784 225.388 382.77 225.566 382.741C225.743 382.706 225.885 382.678 225.992 382.656L226.503 384.915C226.333 384.979 226.095 385.043 225.789 385.107C225.484 385.178 225.097 385.213 224.628 385.213C223.918 385.213 223.222 385.06 222.54 384.755C221.865 384.45 221.304 383.984 220.857 383.359C220.416 382.734 220.196 381.946 220.196 380.994V364.716ZM238.776 374.474V376.818H229.23V374.474H238.776ZM243.2 385V368.636H245.629V371.108H245.799C246.097 370.298 246.637 369.641 247.418 369.137C248.2 368.633 249.08 368.381 250.06 368.381C250.245 368.381 250.476 368.384 250.753 368.391C251.03 368.398 251.239 368.409 251.381 368.423V370.98C251.296 370.959 251.101 370.927 250.795 370.884C250.497 370.835 250.181 370.81 249.847 370.81C249.052 370.81 248.342 370.977 247.717 371.31C247.099 371.637 246.609 372.092 246.246 372.674C245.891 373.249 245.714 373.906 245.714 374.645V385H243.2ZM260.511 385.341C259.034 385.341 257.738 384.989 256.623 384.286C255.515 383.583 254.648 382.599 254.023 381.335C253.406 380.071 253.097 378.594 253.097 376.903C253.097 375.199 253.406 373.711 254.023 372.44C254.648 371.168 255.515 370.181 256.623 369.478C257.738 368.775 259.034 368.423 260.511 368.423C261.989 368.423 263.281 368.775 264.389 369.478C265.504 370.181 266.371 371.168 266.989 372.44C267.614 373.711 267.926 375.199 267.926 376.903C267.926 378.594 267.614 380.071 266.989 381.335C266.371 382.599 265.504 383.583 264.389 384.286C263.281 384.989 261.989 385.341 260.511 385.341ZM260.511 383.082C261.634 383.082 262.557 382.795 263.281 382.219C264.006 381.644 264.542 380.888 264.89 379.95C265.238 379.013 265.412 377.997 265.412 376.903C265.412 375.81 265.238 374.79 264.89 373.846C264.542 372.901 264.006 372.138 263.281 371.555C262.557 370.973 261.634 370.682 260.511 370.682C259.389 370.682 258.466 370.973 257.741 371.555C257.017 372.138 256.481 372.901 256.133 373.846C255.785 374.79 255.611 375.81 255.611 376.903C255.611 377.997 255.785 379.013 256.133 379.95C256.481 380.888 257.017 381.644 257.741 382.219C258.466 382.795 259.389 383.082 260.511 383.082ZM282.077 378.31V368.636H284.591V385H282.077V382.23H281.906C281.523 383.061 280.926 383.768 280.116 384.35C279.307 384.925 278.284 385.213 277.048 385.213C276.025 385.213 275.116 384.989 274.321 384.542C273.525 384.087 272.9 383.406 272.446 382.496C271.991 381.58 271.764 380.426 271.764 379.034V368.636H274.278V378.864C274.278 380.057 274.612 381.009 275.28 381.719C275.954 382.429 276.814 382.784 277.858 382.784C278.483 382.784 279.118 382.624 279.765 382.305C280.418 381.985 280.965 381.495 281.405 380.835C281.853 380.174 282.077 379.332 282.077 378.31ZM296.312 368.636V370.767H287.832V368.636H296.312ZM290.304 364.716H292.818V380.312C292.818 381.023 292.921 381.555 293.127 381.911C293.34 382.259 293.61 382.493 293.936 382.614C294.27 382.727 294.622 382.784 294.991 382.784C295.268 382.784 295.495 382.77 295.673 382.741C295.85 382.706 295.993 382.678 296.099 382.656L296.61 384.915C296.44 384.979 296.202 385.043 295.897 385.107C295.591 385.178 295.204 385.213 294.735 385.213C294.025 385.213 293.329 385.06 292.647 384.755C291.973 384.45 291.412 383.984 290.964 383.359C290.524 382.734 290.304 381.946 290.304 380.994V364.716ZM306.779 385.341C305.202 385.341 303.842 384.993 302.699 384.297C301.562 383.594 300.685 382.614 300.067 381.357C299.457 380.092 299.151 378.622 299.151 376.946C299.151 375.27 299.457 373.793 300.067 372.514C300.685 371.229 301.545 370.227 302.646 369.51C303.754 368.786 305.046 368.423 306.523 368.423C307.376 368.423 308.217 368.565 309.048 368.849C309.879 369.134 310.636 369.595 311.317 370.234C311.999 370.866 312.543 371.705 312.947 372.749C313.352 373.793 313.555 375.078 313.555 376.605V377.67H300.941V375.497H310.998C310.998 374.574 310.813 373.75 310.444 373.026C310.082 372.301 309.563 371.729 308.888 371.31C308.221 370.891 307.433 370.682 306.523 370.682C305.522 370.682 304.656 370.93 303.924 371.428C303.2 371.918 302.642 372.557 302.251 373.345C301.861 374.134 301.665 374.979 301.665 375.881V377.33C301.665 378.565 301.879 379.613 302.305 380.472C302.738 381.325 303.338 381.974 304.105 382.422C304.872 382.862 305.763 383.082 306.779 383.082C307.44 383.082 308.036 382.99 308.569 382.805C309.109 382.614 309.574 382.33 309.964 381.953C310.355 381.57 310.657 381.094 310.87 380.526L313.299 381.207C313.043 382.031 312.614 382.756 312.01 383.381C311.406 383.999 310.661 384.482 309.773 384.83C308.885 385.17 307.887 385.341 306.779 385.341ZM317.379 385V368.636H319.808V371.108H319.979C320.277 370.298 320.817 369.641 321.598 369.137C322.379 368.633 323.26 368.381 324.24 368.381C324.425 368.381 324.656 368.384 324.933 368.391C325.21 368.398 325.419 368.409 325.561 368.423V370.98C325.476 370.959 325.281 370.927 324.975 370.884C324.677 370.835 324.361 370.81 324.027 370.81C323.232 370.81 322.521 370.977 321.896 371.31C321.278 371.637 320.788 372.092 320.426 372.674C320.071 373.249 319.893 373.906 319.893 374.645V385H317.379ZM336.715 374.474V376.818H327.17V374.474H336.715ZM347.318 385.341C345.954 385.341 344.751 384.996 343.706 384.308C342.662 383.612 341.846 382.631 341.256 381.367C340.667 380.096 340.372 378.594 340.372 376.861C340.372 375.142 340.667 373.651 341.256 372.386C341.846 371.122 342.666 370.146 343.717 369.457C344.768 368.768 345.983 368.423 347.361 368.423C348.426 368.423 349.268 368.601 349.885 368.956C350.51 369.304 350.986 369.702 351.313 370.149C351.647 370.589 351.906 370.952 352.091 371.236H352.304V363.182H354.818V385H352.389V382.486H352.091C351.906 382.784 351.643 383.161 351.302 383.615C350.961 384.062 350.475 384.464 349.843 384.819C349.211 385.167 348.369 385.341 347.318 385.341ZM347.659 383.082C348.667 383.082 349.52 382.82 350.216 382.294C350.912 381.761 351.441 381.026 351.803 380.089C352.165 379.144 352.346 378.054 352.346 376.818C352.346 375.597 352.169 374.528 351.814 373.612C351.459 372.688 350.933 371.971 350.237 371.46C349.541 370.941 348.682 370.682 347.659 370.682C346.594 370.682 345.706 370.955 344.996 371.502C344.292 372.042 343.763 372.777 343.408 373.707C343.06 374.631 342.886 375.668 342.886 376.818C342.886 377.983 343.064 379.041 343.419 379.993C343.781 380.937 344.314 381.69 345.017 382.251C345.727 382.805 346.608 383.082 347.659 383.082ZM366.42 385.341C364.942 385.341 363.646 384.989 362.531 384.286C361.423 383.583 360.557 382.599 359.932 381.335C359.314 380.071 359.005 378.594 359.005 376.903C359.005 375.199 359.314 373.711 359.932 372.44C360.557 371.168 361.423 370.181 362.531 369.478C363.646 368.775 364.942 368.423 366.42 368.423C367.897 368.423 369.189 368.775 370.297 369.478C371.412 370.181 372.279 371.168 372.897 372.44C373.522 373.711 373.834 375.199 373.834 376.903C373.834 378.594 373.522 380.071 372.897 381.335C372.279 382.599 371.412 383.583 370.297 384.286C369.189 384.989 367.897 385.341 366.42 385.341ZM366.42 383.082C367.542 383.082 368.465 382.795 369.189 382.219C369.914 381.644 370.45 380.888 370.798 379.95C371.146 379.013 371.32 377.997 371.32 376.903C371.32 375.81 371.146 374.79 370.798 373.846C370.45 372.901 369.914 372.138 369.189 371.555C368.465 370.973 367.542 370.682 366.42 370.682C365.297 370.682 364.374 370.973 363.65 371.555C362.925 372.138 362.389 372.901 362.041 373.846C361.693 374.79 361.519 375.81 361.519 376.903C361.519 377.997 361.693 379.013 362.041 379.95C362.389 380.888 362.925 381.644 363.65 382.219C364.374 382.795 365.297 383.082 366.42 383.082ZM377.672 385V368.636H380.101V371.193H380.314C380.655 370.32 381.206 369.641 381.966 369.158C382.725 368.668 383.638 368.423 384.703 368.423C385.783 368.423 386.681 368.668 387.399 369.158C388.123 369.641 388.688 370.32 389.093 371.193H389.263C389.682 370.348 390.311 369.677 391.149 369.18C391.987 368.675 392.992 368.423 394.164 368.423C395.627 368.423 396.824 368.881 397.754 369.798C398.684 370.707 399.15 372.124 399.15 374.048V385H396.635V374.048C396.635 372.841 396.305 371.978 395.645 371.46C394.984 370.941 394.206 370.682 393.311 370.682C392.161 370.682 391.27 371.03 390.637 371.726C390.005 372.415 389.689 373.288 389.689 374.347V385H387.132V373.793C387.132 372.862 386.831 372.113 386.227 371.545C385.623 370.969 384.846 370.682 383.894 370.682C383.24 370.682 382.63 370.856 382.061 371.204C381.5 371.552 381.046 372.035 380.698 372.653C380.357 373.263 380.186 373.97 380.186 374.773V385H377.672Z" fill="black"/>
<rect x="86.5" y="327.5" width="384" height="93" rx="46.5" stroke="black" stroke-width="3"/>
<path d="M128.5 139.91L130 139.91L130 139.91L128.5 139.91ZM129.561 160.973C128.975 161.559 128.025 161.559 127.439 160.973L117.893 151.427C117.308 150.841 117.308 149.892 117.893 149.306C118.479 148.72 119.429 148.72 120.015 149.306L128.5 157.791L136.985 149.306C137.571 148.72 138.521 148.72 139.107 149.306C139.692 149.892 139.692 150.841 139.107 151.427L129.561 160.973ZM323.15 119.912L324.65 119.912L324.65 121.412L323.15 121.412L323.15 119.912ZM148.5 119.912L148.5 121.412L148.5 121.412L148.5 119.912ZM130 139.91L130 159.912L127 159.912L127 139.91L130 139.91ZM324.65 99.4124L324.65 119.912L321.65 119.912L321.65 99.4124L324.65 99.4124ZM323.15 121.412L148.5 121.412L148.5 118.412L323.15 118.412L323.15 121.412ZM127 139.91C127 128.036 136.626 118.412 148.5 118.412L148.5 121.412C138.282 121.412 130 129.693 130 139.91L127 139.91Z" fill="black"/>
<path d="M263 294.387L264.5 294.387L264.5 294.387L263 294.387ZM261.939 318.561C262.525 319.146 263.475 319.146 264.061 318.561L273.607 309.015C274.192 308.429 274.192 307.479 273.607 306.893C273.021 306.308 272.071 306.308 271.485 306.893L263 315.379L254.515 306.893C253.929 306.308 252.979 306.308 252.393 306.893C251.808 307.479 251.808 308.429 252.393 309.015L261.939 318.561ZM175 283.5L173.5 283.5L173.5 284.983L174.983 285L175 283.5ZM253.114 284.388L253.097 285.888L253.097 285.888L253.114 284.388ZM261.5 294.387L261.5 317.5L264.5 317.5L264.5 294.387L261.5 294.387ZM173.5 260L173.5 283.5L176.5 283.5L176.5 260L173.5 260ZM174.983 285L253.097 285.888L253.131 282.888L175.017 282L174.983 285ZM264.5 294.387C264.5 288.087 259.431 282.959 253.131 282.888L253.097 285.888C257.753 285.941 261.5 289.73 261.5 294.387L264.5 294.387Z" fill="black"/>
</svg>
