<svg width="268" height="96" viewBox="0 0 268 96" fill="none" xmlns="http://www.w3.org/2000/svg">
<rect x="1.5" y="1.5" width="265" height="93" rx="46.5" fill="white"/>
<path d="M72.642 59V37.1818H80.0142C81.7259 37.1818 83.125 37.4908 84.2116 38.1087C85.3054 38.7195 86.1151 39.5469 86.6406 40.5909C87.1662 41.6349 87.429 42.7997 87.429 44.0852C87.429 45.3707 87.1662 46.5391 86.6406 47.5902C86.1222 48.6413 85.3196 49.4794 84.233 50.1044C83.1463 50.7223 81.7543 51.0312 80.0568 51.0312H74.7727V48.6875H79.9716C81.1435 48.6875 82.0845 48.4851 82.7947 48.0803C83.505 47.6754 84.0199 47.1286 84.3395 46.4396C84.6662 45.7436 84.8295 44.9588 84.8295 44.0852C84.8295 43.2116 84.6662 42.4304 84.3395 41.7415C84.0199 41.0526 83.5014 40.5128 82.7841 40.1222C82.0668 39.7244 81.1151 39.5256 79.929 39.5256H75.2841V59H72.642ZM89.81 37.1818H92.8356L98.8867 47.3665H99.1424L105.194 37.1818H108.219L100.336 50.0085V59H97.6935V50.0085L89.81 37.1818ZM111.82 39.5256V37.1818H128.184V39.5256H121.323V59H118.681V39.5256H111.82ZM132.261 59V37.1818H134.903V46.8977H146.537V37.1818H149.179V59H146.537V49.2415H134.903V59H132.261ZM172.877 48.0909C172.877 50.392 172.462 52.3807 171.631 54.0568C170.8 55.733 169.66 57.0256 168.211 57.9347C166.762 58.8438 165.107 59.2983 163.247 59.2983C161.386 59.2983 159.731 58.8438 158.282 57.9347C156.833 57.0256 155.693 55.733 154.862 54.0568C154.031 52.3807 153.616 50.392 153.616 48.0909C153.616 45.7898 154.031 43.8011 154.862 42.125C155.693 40.4489 156.833 39.1562 158.282 38.2472C159.731 37.3381 161.386 36.8835 163.247 36.8835C165.107 36.8835 166.762 37.3381 168.211 38.2472C169.66 39.1562 170.8 40.4489 171.631 42.125C172.462 43.8011 172.877 45.7898 172.877 48.0909ZM170.32 48.0909C170.32 46.2017 170.004 44.6072 169.372 43.3075C168.747 42.0078 167.899 41.0241 166.826 40.3565C165.761 39.6889 164.568 39.3551 163.247 39.3551C161.926 39.3551 160.729 39.6889 159.656 40.3565C158.591 41.0241 157.742 42.0078 157.11 43.3075C156.485 44.6072 156.173 46.2017 156.173 48.0909C156.173 49.9801 156.485 51.5746 157.11 52.8743C157.742 54.174 158.591 55.1577 159.656 55.8253C160.729 56.4929 161.926 56.8267 163.247 56.8267C164.568 56.8267 165.761 56.4929 166.826 55.8253C167.899 55.1577 168.747 54.174 169.372 52.8743C170.004 51.5746 170.32 49.9801 170.32 48.0909ZM194.621 37.1818V59H192.064L180.175 41.8693H179.962V59H177.32V37.1818H179.877L191.808 54.3551H192.021V37.1818H194.621Z" fill="black"/>
<rect x="1.5" y="1.5" width="265" height="93" rx="46.5" stroke="black" stroke-width="3"/>
</svg>
