<svg width="201" height="96" viewBox="0 0 201 96" fill="none" xmlns="http://www.w3.org/2000/svg">
<rect x="1.5" y="1.5" width="198" height="93" rx="46.5" fill="white"/>
<path d="M72.642 59V37.1818H80.0142C81.7259 37.1818 83.125 37.4908 84.2116 38.1087C85.3054 38.7195 86.1151 39.5469 86.6406 40.5909C87.1662 41.6349 87.429 42.7997 87.429 44.0852C87.429 45.3707 87.1662 46.5391 86.6406 47.5902C86.1222 48.6413 85.3196 49.4794 84.233 50.1044C83.1463 50.7223 81.7543 51.0312 80.0568 51.0312H74.7727V48.6875H79.9716C81.1435 48.6875 82.0845 48.4851 82.7947 48.0803C83.505 47.6754 84.0199 47.1286 84.3395 46.4396C84.6662 45.7436 84.8295 44.9588 84.8295 44.0852C84.8295 43.2116 84.6662 42.4304 84.3395 41.7415C84.0199 41.0526 83.5014 40.5128 82.7841 40.1222C82.0668 39.7244 81.1151 39.5256 79.929 39.5256H75.2841V59H72.642ZM91.685 59V37.1818H94.3271V46.8977H105.961V37.1818H108.603V59H105.961V49.2415H94.3271V59H91.685ZM113.892 59V37.1818H121.264C122.976 37.1818 124.375 37.4908 125.462 38.1087C126.555 38.7195 127.365 39.5469 127.891 40.5909C128.416 41.6349 128.679 42.7997 128.679 44.0852C128.679 45.3707 128.416 46.5391 127.891 47.5902C127.372 48.6413 126.57 49.4794 125.483 50.1044C124.396 50.7223 123.004 51.0312 121.307 51.0312H116.023V48.6875H121.222C122.393 48.6875 123.335 48.4851 124.045 48.0803C124.755 47.6754 125.27 47.1286 125.589 46.4396C125.916 45.7436 126.08 44.9588 126.08 44.0852C126.08 43.2116 125.916 42.4304 125.589 41.7415C125.27 41.0526 124.751 40.5128 124.034 40.1222C123.317 39.7244 122.365 39.5256 121.179 39.5256H116.534V59H113.892Z" fill="black"/>
<rect x="1.5" y="1.5" width="198" height="93" rx="46.5" stroke="black" stroke-width="3"/>
</svg>
