<svg width="531" height="262" viewBox="0 0 531 262" fill="none" xmlns="http://www.w3.org/2000/svg">
<rect x="223.5" y="1.5" width="198" height="93" rx="46.5" fill="white"/>
<path d="M312.199 44H309.557C309.401 43.2401 309.127 42.5724 308.737 41.9972C308.353 41.4219 307.884 40.9389 307.33 40.5483C306.783 40.1506 306.176 39.8523 305.509 39.6534C304.841 39.4545 304.145 39.3551 303.42 39.3551C302.099 39.3551 300.903 39.6889 299.83 40.3565C298.765 41.0241 297.916 42.0078 297.284 43.3075C296.659 44.6072 296.347 46.2017 296.347 48.0909C296.347 49.9801 296.659 51.5746 297.284 52.8743C297.916 54.174 298.765 55.1577 299.83 55.8253C300.903 56.4929 302.099 56.8267 303.42 56.8267C304.145 56.8267 304.841 56.7273 305.509 56.5284C306.176 56.3295 306.783 56.0348 307.33 55.6442C307.884 55.2464 308.353 54.7599 308.737 54.1847C309.127 53.6023 309.401 52.9347 309.557 52.1818H312.199C312 53.2969 311.638 54.2947 311.112 55.1754C310.587 56.0561 309.933 56.8054 309.152 57.4233C308.371 58.0341 307.494 58.4993 306.521 58.8189C305.555 59.1385 304.521 59.2983 303.42 59.2983C301.56 59.2983 299.905 58.8438 298.456 57.9347C297.007 57.0256 295.867 55.733 295.036 54.0568C294.205 52.3807 293.79 50.392 293.79 48.0909C293.79 45.7898 294.205 43.8011 295.036 42.125C295.867 40.4489 297.007 39.1562 298.456 38.2472C299.905 37.3381 301.56 36.8835 303.42 36.8835C304.521 36.8835 305.555 37.0433 306.521 37.3629C307.494 37.6825 308.371 38.1513 309.152 38.7692C309.933 39.38 310.587 40.1257 311.112 41.0064C311.638 41.88 312 42.8778 312.199 44ZM328.4 42.6364C328.272 41.5568 327.754 40.7188 326.845 40.1222C325.936 39.5256 324.82 39.2273 323.499 39.2273C322.534 39.2273 321.688 39.3835 320.964 39.696C320.247 40.0085 319.686 40.4382 319.281 40.9851C318.883 41.532 318.684 42.1534 318.684 42.8494C318.684 43.4318 318.823 43.9325 319.1 44.3516C319.384 44.7635 319.746 45.108 320.186 45.3849C320.627 45.6548 321.088 45.8786 321.571 46.0561C322.054 46.2266 322.498 46.3651 322.903 46.4716L325.119 47.0682C325.687 47.2173 326.319 47.4233 327.015 47.6861C327.718 47.9489 328.389 48.3075 329.029 48.7621C329.675 49.2095 330.208 49.7848 330.627 50.4879C331.046 51.1911 331.255 52.054 331.255 53.0767C331.255 54.2557 330.946 55.321 330.328 56.2727C329.718 57.2244 328.823 57.9808 327.644 58.5419C326.472 59.103 325.048 59.3835 323.372 59.3835C321.809 59.3835 320.456 59.1314 319.313 58.6271C318.176 58.1229 317.281 57.4197 316.628 56.5178C315.982 55.6158 315.616 54.5682 315.531 53.375H318.258C318.329 54.1989 318.606 54.8807 319.089 55.4205C319.579 55.9531 320.197 56.3509 320.943 56.6136C321.695 56.8693 322.505 56.9972 323.372 56.9972C324.38 56.9972 325.286 56.8338 326.088 56.5071C326.891 56.1733 327.526 55.7116 327.995 55.1222C328.464 54.5256 328.698 53.8295 328.698 53.0341C328.698 52.3097 328.496 51.7202 328.091 51.2656C327.686 50.8111 327.154 50.4418 326.493 50.1577C325.833 49.8736 325.119 49.625 324.352 49.4119L321.667 48.6449C319.963 48.1548 318.613 47.4553 317.619 46.5462C316.624 45.6371 316.127 44.4474 316.127 42.9773C316.127 41.7557 316.458 40.6903 317.118 39.7812C317.786 38.8651 318.681 38.1548 319.803 37.6506C320.932 37.1392 322.193 36.8835 323.585 36.8835C324.991 36.8835 326.241 37.1357 327.335 37.6399C328.428 38.1371 329.295 38.8189 329.934 39.6854C330.58 40.5518 330.921 41.5355 330.957 42.6364H328.4ZM347.531 42.6364C347.403 41.5568 346.885 40.7188 345.975 40.1222C345.066 39.5256 343.951 39.2273 342.63 39.2273C341.664 39.2273 340.819 39.3835 340.095 39.696C339.377 40.0085 338.816 40.4382 338.412 40.9851C338.014 41.532 337.815 42.1534 337.815 42.8494C337.815 43.4318 337.953 43.9325 338.23 44.3516C338.515 44.7635 338.877 45.108 339.317 45.3849C339.757 45.6548 340.219 45.8786 340.702 46.0561C341.185 46.2266 341.629 46.3651 342.034 46.4716L344.25 47.0682C344.818 47.2173 345.45 47.4233 346.146 47.6861C346.849 47.9489 347.52 48.3075 348.159 48.7621C348.806 49.2095 349.338 49.7848 349.757 50.4879C350.176 51.1911 350.386 52.054 350.386 53.0767C350.386 54.2557 350.077 55.321 349.459 56.2727C348.848 57.2244 347.953 57.9808 346.775 58.5419C345.603 59.103 344.179 59.3835 342.502 59.3835C340.94 59.3835 339.587 59.1314 338.444 58.6271C337.307 58.1229 336.412 57.4197 335.759 56.5178C335.113 55.6158 334.747 54.5682 334.662 53.375H337.389C337.46 54.1989 337.737 54.8807 338.22 55.4205C338.71 55.9531 339.328 56.3509 340.074 56.6136C340.826 56.8693 341.636 56.9972 342.502 56.9972C343.511 56.9972 344.417 56.8338 345.219 56.5071C346.022 56.1733 346.657 55.7116 347.126 55.1222C347.595 54.5256 347.829 53.8295 347.829 53.0341C347.829 52.3097 347.627 51.7202 347.222 51.2656C346.817 50.8111 346.284 50.4418 345.624 50.1577C344.963 49.8736 344.25 49.625 343.483 49.4119L340.798 48.6449C339.093 48.1548 337.744 47.4553 336.75 46.5462C335.755 45.6371 335.258 44.4474 335.258 42.9773C335.258 41.7557 335.588 40.6903 336.249 39.7812C336.917 38.8651 337.811 38.1548 338.934 37.6506C340.063 37.1392 341.324 36.8835 342.716 36.8835C344.122 36.8835 345.372 37.1357 346.466 37.6399C347.559 38.1371 348.426 38.8189 349.065 39.6854C349.711 40.5518 350.052 41.5355 350.088 42.6364H347.531Z" fill="black"/>
<rect x="223.5" y="1.5" width="198" height="93" rx="46.5" stroke="black" stroke-width="3"/>
<rect x="314.5" y="167.5" width="215" height="93" rx="46.5" fill="white"/>
<path d="M397.574 208.636C397.446 207.557 396.928 206.719 396.018 206.122C395.109 205.526 393.994 205.227 392.673 205.227C391.707 205.227 390.862 205.384 390.138 205.696C389.42 206.009 388.859 206.438 388.455 206.985C388.057 207.532 387.858 208.153 387.858 208.849C387.858 209.432 387.996 209.933 388.273 210.352C388.558 210.763 388.92 211.108 389.36 211.385C389.8 211.655 390.262 211.879 390.745 212.056C391.228 212.227 391.672 212.365 392.077 212.472L394.293 213.068C394.861 213.217 395.493 213.423 396.189 213.686C396.892 213.949 397.563 214.308 398.202 214.762C398.849 215.21 399.381 215.785 399.8 216.488C400.219 217.191 400.429 218.054 400.429 219.077C400.429 220.256 400.12 221.321 399.502 222.273C398.891 223.224 397.996 223.981 396.817 224.542C395.646 225.103 394.222 225.384 392.545 225.384C390.983 225.384 389.63 225.131 388.487 224.627C387.35 224.123 386.455 223.42 385.802 222.518C385.156 221.616 384.79 220.568 384.705 219.375H387.432C387.503 220.199 387.78 220.881 388.263 221.42C388.753 221.953 389.371 222.351 390.116 222.614C390.869 222.869 391.679 222.997 392.545 222.997C393.554 222.997 394.46 222.834 395.262 222.507C396.065 222.173 396.7 221.712 397.169 221.122C397.638 220.526 397.872 219.83 397.872 219.034C397.872 218.31 397.67 217.72 397.265 217.266C396.86 216.811 396.327 216.442 395.667 216.158C395.006 215.874 394.293 215.625 393.526 215.412L390.841 214.645C389.136 214.155 387.787 213.455 386.793 212.546C385.798 211.637 385.301 210.447 385.301 208.977C385.301 207.756 385.631 206.69 386.292 205.781C386.96 204.865 387.854 204.155 388.977 203.651C390.106 203.139 391.366 202.884 392.759 202.884C394.165 202.884 395.415 203.136 396.509 203.64C397.602 204.137 398.469 204.819 399.108 205.685C399.754 206.552 400.095 207.536 400.131 208.636H397.574ZM405.668 225H402.898L410.909 203.182H413.637L421.648 225H418.878L412.358 206.634H412.188L405.668 225ZM406.691 216.477H417.855V218.821H406.691V216.477ZM436.978 208.636C436.85 207.557 436.332 206.719 435.423 206.122C434.514 205.526 433.399 205.227 432.078 205.227C431.112 205.227 430.267 205.384 429.542 205.696C428.825 206.009 428.264 206.438 427.859 206.985C427.461 207.532 427.262 208.153 427.262 208.849C427.262 209.432 427.401 209.933 427.678 210.352C427.962 210.763 428.324 211.108 428.764 211.385C429.205 211.655 429.666 211.879 430.149 212.056C430.632 212.227 431.076 212.365 431.481 212.472L433.697 213.068C434.265 213.217 434.897 213.423 435.593 213.686C436.296 213.949 436.968 214.308 437.607 214.762C438.253 215.21 438.786 215.785 439.205 216.488C439.624 217.191 439.833 218.054 439.833 219.077C439.833 220.256 439.524 221.321 438.906 222.273C438.296 223.224 437.401 223.981 436.222 224.542C435.05 225.103 433.626 225.384 431.95 225.384C430.387 225.384 429.034 225.131 427.891 224.627C426.754 224.123 425.86 223.42 425.206 222.518C424.56 221.616 424.194 220.568 424.109 219.375H426.836C426.907 220.199 427.184 220.881 427.667 221.42C428.157 221.953 428.775 222.351 429.521 222.614C430.274 222.869 431.083 222.997 431.95 222.997C432.958 222.997 433.864 222.834 434.666 222.507C435.469 222.173 436.105 221.712 436.573 221.122C437.042 220.526 437.276 219.83 437.276 219.034C437.276 218.31 437.074 217.72 436.669 217.266C436.264 216.811 435.732 216.442 435.071 216.158C434.411 215.874 433.697 215.625 432.93 215.412L430.245 214.645C428.541 214.155 427.191 213.455 426.197 212.546C425.203 211.637 424.705 210.447 424.705 208.977C424.705 207.756 425.036 206.69 425.696 205.781C426.364 204.865 427.259 204.155 428.381 203.651C429.51 203.139 430.771 202.884 432.163 202.884C433.569 202.884 434.819 203.136 435.913 203.64C437.007 204.137 437.873 204.819 438.512 205.685C439.159 206.552 439.499 207.536 439.535 208.636H436.978ZM456.109 208.636C455.981 207.557 455.463 206.719 454.554 206.122C453.645 205.526 452.529 205.227 451.208 205.227C450.243 205.227 449.397 205.384 448.673 205.696C447.956 206.009 447.395 206.438 446.99 206.985C446.592 207.532 446.393 208.153 446.393 208.849C446.393 209.432 446.532 209.933 446.809 210.352C447.093 210.763 447.455 211.108 447.895 211.385C448.336 211.655 448.797 211.879 449.28 212.056C449.763 212.227 450.207 212.365 450.612 212.472L452.828 213.068C453.396 213.217 454.028 213.423 454.724 213.686C455.427 213.949 456.098 214.308 456.738 214.762C457.384 215.21 457.917 215.785 458.336 216.488C458.755 217.191 458.964 218.054 458.964 219.077C458.964 220.256 458.655 221.321 458.037 222.273C457.426 223.224 456.532 223.981 455.353 224.542C454.181 225.103 452.757 225.384 451.081 225.384C449.518 225.384 448.165 225.131 447.022 224.627C445.885 224.123 444.99 223.42 444.337 222.518C443.691 221.616 443.325 220.568 443.24 219.375H445.967C446.038 220.199 446.315 220.881 446.798 221.42C447.288 221.953 447.906 222.351 448.652 222.614C449.404 222.869 450.214 222.997 451.081 222.997C452.089 222.997 452.995 222.834 453.797 222.507C454.6 222.173 455.235 221.712 455.704 221.122C456.173 220.526 456.407 219.83 456.407 219.034C456.407 218.31 456.205 217.72 455.8 217.266C455.395 216.811 454.863 216.442 454.202 216.158C453.542 215.874 452.828 215.625 452.061 215.412L449.376 214.645C447.672 214.155 446.322 213.455 445.328 212.546C444.333 211.637 443.836 210.447 443.836 208.977C443.836 207.756 444.167 206.69 444.827 205.781C445.495 204.865 446.39 204.155 447.512 203.651C448.641 203.139 449.902 202.884 451.294 202.884C452.7 202.884 453.95 203.136 455.044 203.64C456.137 204.137 457.004 204.819 457.643 205.685C458.289 206.552 458.63 207.536 458.666 208.636H456.109Z" fill="black"/>
<rect x="314.5" y="167.5" width="215" height="93" rx="46.5" stroke="black" stroke-width="3"/>
<rect x="1.5" y="164.5" width="275" height="93" rx="46.5" fill="white"/>
<path d="M72.642 222V200.182H75.1562V208.236H75.3693C75.554 207.952 75.8097 207.589 76.1364 207.149C76.4702 206.702 76.946 206.304 77.5639 205.956C78.1889 205.601 79.0341 205.423 80.0994 205.423C81.4773 205.423 82.6918 205.768 83.7429 206.457C84.794 207.146 85.6143 208.122 86.2038 209.386C86.7933 210.651 87.0881 212.142 87.0881 213.861C87.0881 215.594 86.7933 217.096 86.2038 218.367C85.6143 219.631 84.7976 220.612 83.7536 221.308C82.7095 221.996 81.5057 222.341 80.142 222.341C79.0909 222.341 78.2493 222.167 77.6172 221.819C76.9851 221.464 76.4986 221.062 76.1577 220.615C75.8168 220.161 75.554 219.784 75.3693 219.486H75.071V222H72.642ZM75.1136 213.818C75.1136 215.054 75.2947 216.144 75.657 217.089C76.0192 218.026 76.5483 218.761 77.2443 219.294C77.9403 219.82 78.7926 220.082 79.8011 220.082C80.8523 220.082 81.7294 219.805 82.4325 219.251C83.1428 218.69 83.6754 217.937 84.0305 216.993C84.3928 216.041 84.5739 214.983 84.5739 213.818C84.5739 212.668 84.3963 211.631 84.0412 210.707C83.6932 209.777 83.1641 209.042 82.4538 208.502C81.7507 207.955 80.8665 207.682 79.8011 207.682C78.7784 207.682 77.919 207.941 77.223 208.46C76.527 208.971 76.0014 209.688 75.6463 210.612C75.2912 211.528 75.1136 212.597 75.1136 213.818ZM97.5817 222.341C96.1044 222.341 94.8082 221.989 93.6932 221.286C92.5852 220.583 91.7188 219.599 91.0938 218.335C90.4759 217.071 90.1669 215.594 90.1669 213.903C90.1669 212.199 90.4759 210.711 91.0938 209.44C91.7188 208.168 92.5852 207.181 93.6932 206.478C94.8082 205.775 96.1044 205.423 97.5817 205.423C99.0589 205.423 100.352 205.775 101.46 206.478C102.575 207.181 103.441 208.168 104.059 209.44C104.684 210.711 104.996 212.199 104.996 213.903C104.996 215.594 104.684 217.071 104.059 218.335C103.441 219.599 102.575 220.583 101.46 221.286C100.352 221.989 99.0589 222.341 97.5817 222.341ZM97.5817 220.082C98.7038 220.082 99.6271 219.795 100.352 219.219C101.076 218.644 101.612 217.888 101.96 216.95C102.308 216.013 102.482 214.997 102.482 213.903C102.482 212.81 102.308 211.79 101.96 210.846C101.612 209.901 101.076 209.138 100.352 208.555C99.6271 207.973 98.7038 207.682 97.5817 207.682C96.4595 207.682 95.5362 207.973 94.8118 208.555C94.0874 209.138 93.5511 209.901 93.2031 210.846C92.8551 211.79 92.6811 212.81 92.6811 213.903C92.6811 214.997 92.8551 216.013 93.2031 216.95C93.5511 217.888 94.0874 218.644 94.8118 219.219C95.5362 219.795 96.4595 220.082 97.5817 220.082ZM115.482 222.341C114.005 222.341 112.709 221.989 111.594 221.286C110.486 220.583 109.619 219.599 108.994 218.335C108.376 217.071 108.067 215.594 108.067 213.903C108.067 212.199 108.376 210.711 108.994 209.44C109.619 208.168 110.486 207.181 111.594 206.478C112.709 205.775 114.005 205.423 115.482 205.423C116.959 205.423 118.252 205.775 119.36 206.478C120.475 207.181 121.341 208.168 121.959 209.44C122.584 210.711 122.897 212.199 122.897 213.903C122.897 215.594 122.584 217.071 121.959 218.335C121.341 219.599 120.475 220.583 119.36 221.286C118.252 221.989 116.959 222.341 115.482 222.341ZM115.482 220.082C116.604 220.082 117.528 219.795 118.252 219.219C118.976 218.644 119.513 217.888 119.861 216.95C120.209 216.013 120.383 214.997 120.383 213.903C120.383 212.81 120.209 211.79 119.861 210.846C119.513 209.901 118.976 209.138 118.252 208.555C117.528 207.973 116.604 207.682 115.482 207.682C114.36 207.682 113.437 207.973 112.712 208.555C111.988 209.138 111.452 209.901 111.104 210.846C110.756 211.79 110.581 212.81 110.581 213.903C110.581 214.997 110.756 216.013 111.104 216.95C111.452 217.888 111.988 218.644 112.712 219.219C113.437 219.795 114.36 220.082 115.482 220.082ZM133.851 205.636V207.767H125.371V205.636H133.851ZM127.843 201.716H130.357V217.312C130.357 218.023 130.46 218.555 130.666 218.911C130.879 219.259 131.149 219.493 131.475 219.614C131.809 219.727 132.161 219.784 132.53 219.784C132.807 219.784 133.034 219.77 133.212 219.741C133.39 219.706 133.532 219.678 133.638 219.656L134.15 221.915C133.979 221.979 133.741 222.043 133.436 222.107C133.13 222.178 132.743 222.213 132.275 222.213C131.564 222.213 130.868 222.06 130.186 221.755C129.512 221.45 128.951 220.984 128.503 220.359C128.063 219.734 127.843 218.946 127.843 217.994V201.716ZM148.931 209.301L146.673 209.94C146.531 209.564 146.321 209.198 146.044 208.843C145.774 208.481 145.405 208.183 144.936 207.948C144.467 207.714 143.867 207.597 143.136 207.597C142.134 207.597 141.3 207.827 140.632 208.289C139.972 208.744 139.641 209.322 139.641 210.026C139.641 210.651 139.869 211.144 140.323 211.506C140.778 211.869 141.488 212.17 142.454 212.412L144.883 213.009C146.346 213.364 147.436 213.907 148.153 214.638C148.871 215.363 149.229 216.297 149.229 217.44C149.229 218.378 148.96 219.216 148.42 219.955C147.887 220.693 147.141 221.276 146.183 221.702C145.224 222.128 144.109 222.341 142.837 222.341C141.168 222.341 139.787 221.979 138.693 221.254C137.599 220.53 136.907 219.472 136.616 218.08L139.002 217.483C139.229 218.364 139.659 219.024 140.291 219.464C140.93 219.905 141.765 220.125 142.795 220.125C143.967 220.125 144.897 219.876 145.586 219.379C146.282 218.875 146.63 218.271 146.63 217.568C146.63 217 146.431 216.524 146.033 216.141C145.636 215.75 145.025 215.459 144.201 215.267L141.474 214.628C139.975 214.273 138.874 213.722 138.171 212.977C137.475 212.224 137.127 211.283 137.127 210.153C137.127 209.23 137.386 208.413 137.905 207.703C138.43 206.993 139.144 206.435 140.046 206.031C140.955 205.626 141.985 205.423 143.136 205.423C144.755 205.423 146.026 205.778 146.95 206.489C147.88 207.199 148.54 208.136 148.931 209.301ZM160.131 205.636V207.767H151.65V205.636H160.131ZM154.122 201.716H156.636V217.312C156.636 218.023 156.739 218.555 156.945 218.911C157.158 219.259 157.428 219.493 157.755 219.614C158.089 219.727 158.44 219.784 158.809 219.784C159.086 219.784 159.314 219.77 159.491 219.741C159.669 219.706 159.811 219.678 159.917 219.656L160.429 221.915C160.258 221.979 160.02 222.043 159.715 222.107C159.41 222.178 159.023 222.213 158.554 222.213C157.844 222.213 157.148 222.06 156.466 221.755C155.791 221.45 155.23 220.984 154.782 220.359C154.342 219.734 154.122 218.946 154.122 217.994V201.716ZM163.912 222V205.636H166.341V208.108H166.512C166.81 207.298 167.35 206.641 168.131 206.137C168.912 205.633 169.793 205.381 170.773 205.381C170.958 205.381 171.189 205.384 171.466 205.391C171.743 205.398 171.952 205.409 172.094 205.423V207.98C172.009 207.959 171.814 207.927 171.508 207.884C171.21 207.835 170.894 207.81 170.56 207.81C169.765 207.81 169.055 207.977 168.43 208.31C167.812 208.637 167.322 209.092 166.959 209.674C166.604 210.249 166.427 210.906 166.427 211.645V222H163.912ZM179.89 222.384C178.853 222.384 177.912 222.188 177.067 221.798C176.222 221.4 175.55 220.828 175.053 220.082C174.556 219.33 174.308 218.42 174.308 217.355C174.308 216.418 174.492 215.658 174.862 215.075C175.231 214.486 175.724 214.024 176.342 213.69C176.96 213.357 177.642 213.108 178.388 212.945C179.141 212.774 179.897 212.639 180.657 212.54C181.651 212.412 182.457 212.316 183.075 212.252C183.7 212.181 184.155 212.064 184.439 211.901C184.73 211.737 184.876 211.453 184.876 211.048V210.963C184.876 209.912 184.588 209.095 184.013 208.513C183.445 207.93 182.582 207.639 181.424 207.639C180.224 207.639 179.283 207.902 178.601 208.428C177.919 208.953 177.44 209.514 177.163 210.111L174.776 209.259C175.202 208.264 175.771 207.49 176.481 206.936C177.198 206.375 177.979 205.984 178.825 205.764C179.677 205.537 180.515 205.423 181.339 205.423C181.864 205.423 182.468 205.487 183.15 205.615C183.839 205.736 184.503 205.988 185.142 206.371C185.788 206.755 186.325 207.334 186.751 208.108C187.177 208.882 187.39 209.919 187.39 211.219V222H184.876V219.784H184.748C184.577 220.139 184.293 220.519 183.896 220.924C183.498 221.329 182.969 221.673 182.308 221.957C181.648 222.241 180.842 222.384 179.89 222.384ZM180.273 220.125C181.268 220.125 182.106 219.93 182.788 219.539C183.477 219.148 183.995 218.644 184.343 218.026C184.698 217.408 184.876 216.759 184.876 216.077V213.776C184.769 213.903 184.535 214.021 184.173 214.127C183.817 214.227 183.406 214.315 182.937 214.393C182.475 214.464 182.024 214.528 181.584 214.585C181.151 214.635 180.799 214.678 180.529 214.713C179.876 214.798 179.265 214.937 178.697 215.129C178.136 215.313 177.681 215.594 177.333 215.97C176.992 216.339 176.822 216.844 176.822 217.483C176.822 218.357 177.145 219.017 177.791 219.464C178.445 219.905 179.272 220.125 180.273 220.125ZM191.979 228.136V205.636H194.408V208.236H194.706C194.891 207.952 195.146 207.589 195.473 207.149C195.807 206.702 196.283 206.304 196.901 205.956C197.526 205.601 198.371 205.423 199.436 205.423C200.814 205.423 202.029 205.768 203.08 206.457C204.131 207.146 204.951 208.122 205.541 209.386C206.13 210.651 206.425 212.142 206.425 213.861C206.425 215.594 206.13 217.096 205.541 218.367C204.951 219.631 204.134 220.612 203.09 221.308C202.046 221.996 200.843 222.341 199.479 222.341C198.428 222.341 197.586 222.167 196.954 221.819C196.322 221.464 195.835 221.062 195.494 220.615C195.154 220.161 194.891 219.784 194.706 219.486H194.493V228.136H191.979ZM194.45 213.818C194.45 215.054 194.632 216.144 194.994 217.089C195.356 218.026 195.885 218.761 196.581 219.294C197.277 219.82 198.129 220.082 199.138 220.082C200.189 220.082 201.066 219.805 201.769 219.251C202.48 218.69 203.012 217.937 203.367 216.993C203.73 216.041 203.911 214.983 203.911 213.818C203.911 212.668 203.733 211.631 203.378 210.707C203.03 209.777 202.501 209.042 201.791 208.502C201.088 207.955 200.203 207.682 199.138 207.682C198.115 207.682 197.256 207.941 196.56 208.46C195.864 208.971 195.338 209.688 194.983 210.612C194.628 211.528 194.45 212.597 194.45 213.818Z" fill="black"/>
<rect x="1.5" y="164.5" width="275" height="93" rx="46.5" stroke="black" stroke-width="3"/>
<path d="M406 139.5L404.5 139.5L404.5 139.5L406 139.5ZM404.939 160.561C405.525 161.147 406.475 161.147 407.061 160.561L416.607 151.015C417.192 150.429 417.192 149.479 416.607 148.894C416.021 148.308 415.071 148.308 414.485 148.894L406 157.379L397.515 148.893C396.929 148.308 395.979 148.308 395.393 148.893C394.808 149.479 394.808 150.429 395.393 151.015L404.939 160.561ZM323.5 119.5L322 119.5L322 121L323.5 121L323.5 119.5ZM386 119.5L386 121L386 119.5ZM404.5 139.5L404.5 159.5L407.5 159.5L407.5 139.5L404.5 139.5ZM322 99.0001L322 119.5L325 119.5L325 99.0001L322 99.0001ZM323.5 121L386 121L386 118L323.5 118L323.5 121ZM407.5 139.5C407.5 127.626 397.874 118 386 118L386 121C396.217 121 404.5 129.283 404.5 139.5L407.5 139.5Z" fill="black"/>
<path d="M128.5 139.91L130 139.91L130 139.91L128.5 139.91ZM129.561 160.973C128.975 161.559 128.025 161.559 127.439 160.973L117.893 151.427C117.308 150.841 117.308 149.892 117.893 149.306C118.479 148.72 119.429 148.72 120.015 149.306L128.5 157.791L136.985 149.306C137.571 148.72 138.521 148.72 139.107 149.306C139.692 149.892 139.692 150.841 139.107 151.427L129.561 160.973ZM323.15 119.912L324.65 119.912L324.65 121.412L323.15 121.412L323.15 119.912ZM148.5 119.912L148.5 121.412L148.5 121.412L148.5 119.912ZM130 139.91L130 159.912L127 159.912L127 139.91L130 139.91ZM324.65 99.4124L324.65 119.912L321.65 119.912L321.65 99.4124L324.65 99.4124ZM323.15 121.412L148.5 121.412L148.5 118.412L323.15 118.412L323.15 121.412ZM127 139.91C127 128.036 136.626 118.412 148.5 118.412L148.5 121.412C138.282 121.412 130 129.693 130 139.91L127 139.91Z" fill="black"/>
</svg>
