<svg width="337" height="262" viewBox="0 0 337 262" fill="none" xmlns="http://www.w3.org/2000/svg">
<rect x="1.5" y="1.5" width="223" height="93" rx="46.5" fill="white"/>
<path d="M72.642 59V37.1818H75.2841V46.8977H86.9176V37.1818H89.5597V59H86.9176V49.2415H75.2841V59H72.642ZM93.6559 39.5256V37.1818H110.02V39.5256H103.159V59H100.517V39.5256H93.6559ZM114.097 37.1818H117.251L124.665 55.2926H124.921L132.336 37.1818H135.489V59H133.018V42.4233H132.805L125.986 59H123.6L116.782 42.4233H116.569V59H114.097V37.1818ZM140.787 59V37.1818H143.429V56.6562H153.571V59H140.787Z" fill="black"/>
<rect x="1.5" y="1.5" width="223" height="93" rx="46.5" stroke="black" stroke-width="3"/>
<rect x="112.5" y="167.5" width="223" height="93" rx="46.5" fill="white"/>
<path d="M183.301 231.136V208.636H185.73V211.236H186.028C186.213 210.952 186.469 210.589 186.795 210.149C187.129 209.702 187.605 209.304 188.223 208.956C188.848 208.601 189.693 208.423 190.759 208.423C192.136 208.423 193.351 208.768 194.402 209.457C195.453 210.146 196.273 211.122 196.863 212.386C197.452 213.651 197.747 215.142 197.747 216.861C197.747 218.594 197.452 220.096 196.863 221.367C196.273 222.631 195.457 223.612 194.413 224.308C193.369 224.996 192.165 225.341 190.801 225.341C189.75 225.341 188.908 225.167 188.276 224.819C187.644 224.464 187.158 224.062 186.817 223.615C186.476 223.161 186.213 222.784 186.028 222.486H185.815V231.136H183.301ZM185.773 216.818C185.773 218.054 185.954 219.144 186.316 220.089C186.678 221.026 187.207 221.761 187.903 222.294C188.599 222.82 189.452 223.082 190.46 223.082C191.511 223.082 192.388 222.805 193.092 222.251C193.802 221.69 194.335 220.937 194.69 219.993C195.052 219.041 195.233 217.983 195.233 216.818C195.233 215.668 195.055 214.631 194.7 213.707C194.352 212.777 193.823 212.042 193.113 211.502C192.41 210.955 191.526 210.682 190.46 210.682C189.438 210.682 188.578 210.941 187.882 211.46C187.186 211.971 186.661 212.688 186.305 213.612C185.95 214.528 185.773 215.597 185.773 216.818ZM211.895 218.31V208.636H214.409V225H211.895V222.23H211.724C211.341 223.061 210.744 223.768 209.935 224.35C209.125 224.925 208.102 225.213 206.866 225.213C205.844 225.213 204.935 224.989 204.139 224.542C203.344 224.087 202.719 223.406 202.264 222.496C201.81 221.58 201.582 220.426 201.582 219.034V208.636H204.097V218.864C204.097 220.057 204.43 221.009 205.098 221.719C205.773 222.429 206.632 222.784 207.676 222.784C208.301 222.784 208.937 222.624 209.583 222.305C210.237 221.985 210.783 221.495 211.224 220.835C211.671 220.174 211.895 219.332 211.895 218.31ZM225.619 231.477C224.405 231.477 223.361 231.321 222.487 231.009C221.613 230.703 220.885 230.298 220.303 229.794C219.728 229.297 219.27 228.764 218.929 228.196L220.932 226.79C221.159 227.088 221.447 227.429 221.795 227.812C222.143 228.203 222.618 228.54 223.222 228.825C223.833 229.116 224.632 229.261 225.619 229.261C226.94 229.261 228.03 228.942 228.89 228.303C229.749 227.663 230.179 226.662 230.179 225.298V221.974H229.966C229.781 222.273 229.518 222.642 229.177 223.082C228.844 223.516 228.361 223.903 227.729 224.244C227.104 224.577 226.258 224.744 225.193 224.744C223.872 224.744 222.686 224.432 221.635 223.807C220.591 223.182 219.763 222.273 219.153 221.08C218.549 219.886 218.247 218.437 218.247 216.733C218.247 215.057 218.542 213.597 219.131 212.354C219.721 211.104 220.541 210.138 221.592 209.457C222.643 208.768 223.858 208.423 225.236 208.423C226.301 208.423 227.146 208.601 227.771 208.956C228.403 209.304 228.886 209.702 229.22 210.149C229.561 210.589 229.824 210.952 230.008 211.236H230.264V208.636H232.693V225.469C232.693 226.875 232.373 228.018 231.734 228.899C231.102 229.787 230.25 230.437 229.177 230.849C228.112 231.268 226.926 231.477 225.619 231.477ZM225.534 222.486C226.542 222.486 227.395 222.255 228.091 221.793C228.787 221.332 229.316 220.668 229.678 219.801C230.04 218.935 230.221 217.898 230.221 216.69C230.221 215.511 230.044 214.471 229.689 213.569C229.334 212.667 228.808 211.96 228.112 211.449C227.416 210.937 226.557 210.682 225.534 210.682C224.469 210.682 223.581 210.952 222.871 211.491C222.167 212.031 221.638 212.756 221.283 213.665C220.935 214.574 220.761 215.582 220.761 216.69C220.761 217.827 220.939 218.832 221.294 219.705C221.656 220.572 222.189 221.254 222.892 221.751C223.602 222.241 224.483 222.486 225.534 222.486ZM239.128 225.17C238.602 225.17 238.151 224.982 237.775 224.606C237.398 224.229 237.21 223.778 237.21 223.253C237.21 222.727 237.398 222.276 237.775 221.9C238.151 221.523 238.602 221.335 239.128 221.335C239.653 221.335 240.104 221.523 240.481 221.9C240.857 222.276 241.045 222.727 241.045 223.253C241.045 223.601 240.956 223.92 240.779 224.212C240.608 224.503 240.378 224.737 240.086 224.915C239.802 225.085 239.483 225.17 239.128 225.17ZM245.557 208.636H248.071V226.193C248.071 227.202 247.897 228.075 247.549 228.814C247.208 229.553 246.69 230.124 245.994 230.529C245.305 230.934 244.435 231.136 243.384 231.136C243.298 231.136 243.213 231.136 243.128 231.136C243.043 231.136 242.958 231.136 242.872 231.136V228.793C242.958 228.793 243.036 228.793 243.107 228.793C243.178 228.793 243.256 228.793 243.341 228.793C244.108 228.793 244.669 228.565 245.024 228.111C245.379 227.663 245.557 227.024 245.557 226.193V208.636ZM246.793 205.909C246.303 205.909 245.88 205.742 245.525 205.408C245.177 205.075 245.003 204.673 245.003 204.205C245.003 203.736 245.177 203.335 245.525 203.001C245.88 202.667 246.303 202.5 246.793 202.5C247.283 202.5 247.702 202.667 248.05 203.001C248.405 203.335 248.583 203.736 248.583 204.205C248.583 204.673 248.405 205.075 248.05 205.408C247.702 205.742 247.283 205.909 246.793 205.909ZM264.267 212.301L262.009 212.94C261.866 212.564 261.657 212.198 261.38 211.843C261.11 211.481 260.741 211.183 260.272 210.948C259.803 210.714 259.203 210.597 258.472 210.597C257.47 210.597 256.636 210.827 255.968 211.289C255.308 211.744 254.977 212.322 254.977 213.026C254.977 213.651 255.205 214.144 255.659 214.506C256.114 214.869 256.824 215.17 257.79 215.412L260.219 216.009C261.682 216.364 262.772 216.907 263.489 217.638C264.207 218.363 264.565 219.297 264.565 220.44C264.565 221.378 264.295 222.216 263.756 222.955C263.223 223.693 262.477 224.276 261.518 224.702C260.56 225.128 259.445 225.341 258.173 225.341C256.504 225.341 255.123 224.979 254.029 224.254C252.935 223.53 252.243 222.472 251.952 221.08L254.338 220.483C254.565 221.364 254.995 222.024 255.627 222.464C256.266 222.905 257.101 223.125 258.131 223.125C259.303 223.125 260.233 222.876 260.922 222.379C261.618 221.875 261.966 221.271 261.966 220.568C261.966 220 261.767 219.524 261.369 219.141C260.972 218.75 260.361 218.459 259.537 218.267L256.81 217.628C255.311 217.273 254.21 216.722 253.507 215.977C252.811 215.224 252.463 214.283 252.463 213.153C252.463 212.23 252.722 211.413 253.241 210.703C253.766 209.993 254.48 209.435 255.382 209.031C256.291 208.626 257.321 208.423 258.472 208.423C260.091 208.423 261.362 208.778 262.286 209.489C263.216 210.199 263.876 211.136 264.267 212.301Z" fill="black"/>
<rect x="112.5" y="167.5" width="223" height="93" rx="46.5" stroke="black" stroke-width="3"/>
<path d="M204 139.5L202.5 139.5L202.5 139.5L204 139.5ZM202.939 160.561C203.525 161.147 204.475 161.147 205.061 160.561L214.607 151.015C215.192 150.429 215.192 149.479 214.607 148.894C214.021 148.308 213.071 148.308 212.485 148.894L204 157.379L195.515 148.893C194.929 148.308 193.979 148.308 193.393 148.893C192.808 149.479 192.808 150.429 193.393 151.015L202.939 160.561ZM121.5 119.5L120 119.5L120 121L121.5 121L121.5 119.5ZM184 119.5L184 121L184 119.5ZM202.5 139.5L202.5 159.5L205.5 159.5L205.5 139.5L202.5 139.5ZM120 99.0001L120 119.5L123 119.5L123 99.0001L120 99.0001ZM121.5 121L184 121L184 118L121.5 118L121.5 121ZM205.5 139.5C205.5 127.626 195.874 118 184 118L184 121C194.217 121 202.5 129.283 202.5 139.5L205.5 139.5Z" fill="black"/>
</svg>
